<svg id="Flat" height="512" viewBox="0 0 512 512" width="512" xmlns="http://www.w3.org/2000/svg"><path d="m324.17993 328.16992a136.077 136.077 0 0 1 -164.17993 21.63013l68.01-117.80005z" fill="#8acce7"/><path d="m352 160h-136l-68.01 117.80005a136.00965 136.00965 0 1 1 204.01-117.80005z" fill="#e44042"/><path d="m352 160h-136l-68.01-117.8a136.036 136.036 0 0 1 204.01 117.8z" fill="#a2c32a"/><path d="m392 199.83008a135.57224 135.57224 0 0 1 -39.83008 96.16992l-96.16992-96.16992z" fill="#eedc9a"/><path d="m48 488h144a24 24 0 0 0 24-24v-216l-48-48h-120a24 24 0 0 0 -24 24v240a24 24 0 0 0 24 24z" fill="#eedc9a"/><g fill="#eebe33"><path d="m168 200v48h48z"/><path d="m48 224h32v16h-32z"/><path d="m80 272h80v16h-80z"/><path d="m176 272h16v16h-16z"/><path d="m160 336h32v16h-32z"/><path d="m48 336h96v16h-96z"/><path d="m128 304h64v16h-64z"/><path d="m48 304h64v16h-64z"/><path d="m48 368h48v16h-48z"/><path d="m112 368h80v16h-80z"/><path d="m48 400h80v16h-80z"/><path d="m144.798 400h31.202v16h-31.202z"/><path d="m152.798 432h31.202v16h-31.202z"/></g><path d="m440 392h-144a8.00235 8.00235 0 0 1 -5.65723-2.34277l-48-48 11.31446-11.31446 45.65625 45.65723h140.68652z" fill="#e44042"/><rect fill="#8acce7" height="80" rx="24" width="128" x="304" y="408"/><path d="m336 424h48v16h-48z" fill="#379ec3"/><path d="m400 424h16v16h-16z" fill="#379ec3"/><path d="m320 456h16v16h-16z" fill="#379ec3"/><path d="m352 456h48v16h-48z" fill="#379ec3"/><rect fill="#2d80b3" height="80" rx="24" width="112" x="376" y="72"/><path d="m408 88h32v16h-32z" fill="#396795"/><path d="m456 88h16v16h-16z" fill="#396795"/><path d="m392 120h16v16h-16z" fill="#396795"/><path d="m424 120h32v16h-32z" fill="#396795"/><path d="m333.65723 221.65723-11.31446-11.31446 40-40a8.00235 8.00235 0 0 1 5.65723-2.34277h128v16h-124.68652z" fill="#e44042"/></svg>