<svg id="Layer_1" enable-background="new 0 0 512.001 512.001" height="512" viewBox="0 0 512.001 512.001" width="512" xmlns="http://www.w3.org/2000/svg"><g><path d="m504.001 200.001h-24v-24-16c0-1.242-.289-2.467-.845-3.578l-8-16-16-32c-1.355-2.71-4.125-4.422-7.155-4.422h-45.792c-18.862 0-34.208 15.345-34.208 34.208v61.792h-8c-2.122 0-4.156.843-5.657 2.343l-40 40c-1.5 1.5-2.343 3.535-2.343 5.657v32h-63.547l85.593-98.761c1.26-1.454 1.954-3.314 1.954-5.239v-34.162c0-18.659 12.592-35.049 30.622-39.857l83.439-22.25c3.502-.934 5.938-4.105 5.938-7.73v-24c0-4.418-3.582-8-8-8h-136c-1.667 0-3.293.521-4.65 1.49l-53.913 38.51h-197.436c-2.928 0-5.621 1.599-7.023 4.169l-48 88c-2.104 3.858-.703 8.69 3.138 10.824l174.612 97.007h-19.364c-16.042-10.129-35.029-16-55.363-16-57.346 0-104 46.654-104 104s46.654 104 104 104c54.654 0 99.597-42.378 103.695-96h96.61c4.098 53.622 49.041 96 103.695 96 57.346 0 104-46.654 104-104 0-11.35-1.834-22.277-5.21-32.51 3.04-1.133 5.21-4.055 5.21-7.49v-120c0-4.42-3.582-8.001-8-8.001zm-40-38.112v6.111h-24c-4.411 0-8-3.589-8-8s3.589-8 8-8h19.056zm-80-23.681c0-10.04 8.168-18.208 18.208-18.208h40.848l8 16h-11.056c-13.233 0-24 10.766-24 24s10.767 24 24 24h24v16h-80zm-323.251-42.207h195.251c1.667 0 3.293-.521 4.65-1.49l53.913-38.51h125.437v9.854l-77.501 20.666c-25.022 6.673-42.499 29.42-42.499 55.317v31.178l-95.241 109.895s-.001.001-.002.002l-2.549 2.94-8.774-4.875c-.012-.006-.023-.013-.034-.019l-194.575-108.096zm159.366 206.993c1.222.679 2.558 1.007 3.882 1.007 2.26 0 4.486-.957 6.049-2.761l4.541-5.239h77.414v32 .01c-4.171 9.977-6.836 20.735-7.696 31.99h-96.61c-1.892-24.75-12.488-47.103-28.721-64h28.553zm-116.115 153.007c-48.523 0-88-39.477-88-88s39.477-88 88-88 88 39.477 88 88-39.476 88-88 88zm304 0c-48.523 0-88-39.477-88-88s39.477-88 88-88 88 39.477 88 88-39.476 88-88 88zm0-192c-32.134 0-60.908 14.651-80 37.623v-50.309l35.313-35.314h12.687 96 24v16h-64c-4.418 0-8 3.582-8 8s3.582 8 8 8h64v64.637c-18.435-29.2-50.988-48.637-88-48.637z"/><path d="m104.001 320.001c-26.467 0-48 21.532-48 48s21.533 48 48 48 48-21.532 48-48-21.532-48-48-48zm0 80c-17.645 0-32-14.355-32-32s14.355-32 32-32 32 14.355 32 32-14.355 32-32 32z"/><path d="m408.001 320.001c-26.468 0-48 21.532-48 48s21.532 48 48 48 48-21.532 48-48-21.532-48-48-48zm0 80c-17.645 0-32-14.355-32-32s14.355-32 32-32 32 14.355 32 32-14.355 32-32 32z"/><path d="m208.001 128.001h56v56c0 4.418 3.582 8 8 8s8-3.582 8-8v-64c0-4.418-3.582-8-8-8h-184c-4.418 0-8 3.582-8 8s3.582 8 8 8h32v48c0 4.418 3.582 8 8 8s8-3.582 8-8v-48h56v96c0 4.418 3.582 8 8 8s8-3.582 8-8z"/></g></svg>