<svg id="Capa_1" enable-background="new 0 0 512.001 512.001" height="512" viewBox="0 0 512.001 512.001" width="512" xmlns="http://www.w3.org/2000/svg"><g><g><g><g><path d="m494.398 0h-34.738c-4.142 0-7.5 3.358-7.5 7.5s3.358 7.5 7.5 7.5h34.738c1.435 0 2.602 1.167 2.602 2.602v123.821h-38.993c-9.135 0-16.566 7.432-16.566 16.566v.97c0 4.402 1.754 8.59 4.939 11.794 3.329 3.348 5.163 7.792 5.163 12.514 0 5.042-2.156 9.864-5.915 13.231-3.809 3.412-8.74 4.978-13.89 4.41-8.038-.888-14.583-7.35-15.563-15.366-.672-5.5 1.151-10.884 5.006-14.772 3.196-3.226 4.956-7.422 4.956-11.816v-.966c0-9.135-7.432-16.566-16.566-16.566h-38.993v-38.992c0-.864.703-1.566 1.566-1.566h.966c.407 0 .866.223 1.256.61 7.168 7.106 17.063 10.475 27.152 9.241 14.845-1.815 26.812-13.929 28.454-28.805 1.028-9.307-1.94-18.617-8.145-25.544-6.208-6.932-15.104-10.908-24.405-10.908-8.712 0-16.913 3.383-23.09 9.525-.217.215-.663.577-1.219.577h-.97c-.864 0-1.566-.703-1.566-1.566v-38.994h54.048c4.142 0 7.5-3.358 7.5-7.5s-3.358-7.5-7.5-7.5h-61.548c-4.142 0-7.5 3.358-7.5 7.5v46.493c0 9.135 7.432 16.566 16.566 16.566h.97c4.402 0 8.59-1.754 11.794-4.939 3.348-3.329 7.792-5.163 12.515-5.163 5.042 0 9.864 2.156 13.231 5.916 3.412 3.809 4.978 8.742 4.409 13.89-.888 8.038-7.35 14.583-15.366 15.563-5.498.672-10.884-1.151-14.771-5.005-3.225-3.196-7.421-4.957-11.816-4.957h-.966c-9.135 0-16.566 7.432-16.566 16.566v46.493c0 4.142 3.358 7.5 7.5 7.5h46.493c.864 0 1.566.703 1.566 1.566v.966c0 .408-.223.866-.61 1.257-7.106 7.168-10.475 17.065-9.241 27.152 1.815 14.845 13.929 26.812 28.805 28.454 1.212.134 2.423.2 3.63.2 8.061 0 15.889-2.949 21.914-8.345 6.932-6.209 10.908-15.104 10.908-24.405 0-8.712-3.383-16.912-9.525-23.09-.215-.217-.577-.663-.577-1.219v-.97c0-.864.703-1.566 1.566-1.566h46.494c4.142 0 7.5-3.358 7.5-7.5v-131.321c0-9.706-7.896-17.602-17.602-17.602z"/><path d="m504.5 355.577h-46.493c-9.135 0-16.566 7.432-16.566 16.566v.97c0 4.402 1.754 8.59 4.939 11.794 3.329 3.348 5.163 7.792 5.163 12.515 0 5.042-2.156 9.864-5.916 13.231-3.809 3.412-8.741 4.977-13.89 4.409-8.038-.888-14.583-7.35-15.563-15.365-.672-5.5 1.151-10.884 5.005-14.771 3.196-3.225 4.957-7.421 4.957-11.816v-.966c0-9.135-7.432-16.566-16.566-16.566h-46.493c-4.142 0-7.5 3.358-7.5 7.5v46.493c0 .864-.703 1.566-1.566 1.566h-.966c-.408 0-.866-.223-1.257-.61-7.168-7.106-17.063-10.474-27.152-9.241-14.845 1.815-26.812 13.929-28.454 28.805-1.028 9.307 1.941 18.617 8.145 25.544 6.209 6.932 15.104 10.908 24.405 10.908 8.712 0 16.912-3.383 23.09-9.525.217-.215.663-.577 1.219-.577h2.537v48.059c0 4.142 3.358 7.5 7.5 7.5h131.321c9.706 0 17.602-7.896 17.602-17.602v-131.321c-.001-4.142-3.359-7.5-7.501-7.5zm-7.5 138.821c0 1.435-1.167 2.602-2.602 2.602h-123.821v-48.059c0-4.142-3.358-7.5-7.5-7.5h-10.037c-4.402 0-8.59 1.754-11.794 4.939-3.348 3.329-7.792 5.163-12.514 5.163-5.042 0-9.864-2.156-13.231-5.915-3.412-3.81-4.978-8.743-4.41-13.89.888-8.038 7.35-14.583 15.366-15.563 5.496-.672 10.884 1.151 14.772 5.006 3.226 3.196 7.422 4.956 11.816 4.956h.966c9.135 0 16.566-7.432 16.566-16.566v-38.993h38.993c.864 0 1.566.703 1.566 1.566v.966c0 .407-.223.866-.61 1.256-7.106 7.168-10.475 17.065-9.241 27.152 1.815 14.845 13.929 26.812 28.805 28.454 9.306 1.026 18.617-1.94 25.544-8.145 6.932-6.208 10.908-15.104 10.908-24.405 0-8.712-3.383-16.913-9.525-23.09-.215-.217-.577-.663-.577-1.219v-.97c0-.864.703-1.566 1.566-1.566h38.994z"/><path d="m148.923 355.577h-46.493c-.864 0-1.566-.703-1.566-1.566v-.966c0-.408.223-.866.61-1.257 7.107-7.169 10.475-17.065 9.241-27.152-1.815-14.845-13.93-26.812-28.805-28.454-9.309-1.03-18.617 1.941-25.544 8.145-6.932 6.209-10.908 15.104-10.908 24.405 0 8.712 3.383 16.912 9.525 23.09.215.217.577.663.577 1.219v.97c0 .864-.703 1.566-1.566 1.566h-46.494c-4.142 0-7.5 3.358-7.5 7.5v131.321c0 9.706 7.896 17.602 17.602 17.602h16.663c4.142 0 7.5-3.358 7.5-7.5s-3.358-7.5-7.5-7.5h-16.663c-1.435 0-2.602-1.167-2.602-2.602v-123.821h38.993c9.135 0 16.566-7.432 16.566-16.566v-.97c0-4.402-1.754-8.59-4.939-11.794-3.329-3.348-5.163-7.792-5.163-12.514 0-5.042 2.156-9.864 5.915-13.231 3.809-3.412 8.74-4.977 13.89-4.41 8.037.888 14.583 7.35 15.563 15.366.673 5.5-1.151 10.884-5.006 14.772-3.196 3.226-4.956 7.422-4.956 11.816v.966c0 9.135 7.432 16.566 16.566 16.566h38.993v38.989c0 .866-.705 1.57-1.57 1.57h-.962c-.407 0-.866-.223-1.257-.61-7.169-7.106-17.066-10.476-27.152-9.24-14.845 1.815-26.811 13.93-28.453 28.805-1.028 9.307 1.94 18.617 8.145 25.544 6.208 6.932 15.104 10.908 24.405 10.908 8.712 0 16.913-3.383 23.09-9.525.217-.215.663-.577 1.219-.577h.966c.866 0 1.57.705 1.57 1.57v38.988h-72.137c-4.142 0-7.5 3.358-7.5 7.5s3.358 7.5 7.5 7.5h79.637c4.142 0 7.5-3.358 7.5-7.5v-46.489c0-9.137-7.434-16.57-16.57-16.57h-.966c-4.402 0-8.59 1.754-11.794 4.939-3.348 3.329-7.792 5.163-12.515 5.163-5.042 0-9.864-2.156-13.231-5.916-3.412-3.809-4.978-8.742-4.409-13.89.888-8.037 7.35-14.583 15.366-15.563 5.496-.672 10.883 1.151 14.771 5.005 3.225 3.196 7.421 4.957 11.816 4.957h.962c9.137 0 16.57-7.433 16.57-16.57v-46.489c0-4.142-3.358-7.5-7.5-7.5z"/><path d="m7.5 156.423h46.493c9.135 0 16.566-7.432 16.566-16.566v-.97c0-4.402-1.754-8.59-4.939-11.794-3.329-3.348-5.163-7.792-5.163-12.515 0-5.042 2.156-9.864 5.916-13.231 3.809-3.412 8.746-4.976 13.89-4.409 8.038.888 14.583 7.35 15.563 15.365.672 5.5-1.151 10.884-5.005 14.771-3.196 3.225-4.957 7.421-4.957 11.816v.966c0 9.135 7.432 16.566 16.566 16.566h46.493c4.142 0 7.5-3.358 7.5-7.5v-46.492c0-.864.703-1.566 1.566-1.566h.966c.408 0 .866.223 1.257.61 7.168 7.106 17.061 10.473 27.152 9.241 14.845-1.815 26.812-13.929 28.454-28.805 1.028-9.307-1.941-18.617-8.145-25.544-6.209-6.932-15.104-10.908-24.405-10.908-8.712 0-16.912 3.383-23.09 9.525-.217.215-.663.577-1.219.577h-.97c-.864 0-1.566-.703-1.566-1.566v-46.494c0-4.142-3.358-7.5-7.5-7.5h-131.321c-9.706 0-17.602 7.896-17.602 17.602v131.321c0 4.142 3.358 7.5 7.5 7.5zm7.5-138.821c0-1.435 1.167-2.602 2.602-2.602h123.821v38.993c0 9.135 7.432 16.566 16.566 16.566h.97c4.402 0 8.59-1.754 11.794-4.939 3.348-3.329 7.792-5.163 12.514-5.163 5.042 0 9.864 2.156 13.231 5.915 3.412 3.81 4.978 8.743 4.41 13.89-.888 8.038-7.35 14.583-15.366 15.563-5.497.672-10.883-1.151-14.772-5.006-3.226-3.196-7.422-4.956-11.816-4.956h-.966c-9.135 0-16.566 7.432-16.566 16.566v38.993h-38.992c-.864 0-1.566-.703-1.566-1.566v-.966c0-.407.223-.866.61-1.256 7.106-7.168 10.475-17.065 9.241-27.152-1.815-14.845-13.929-26.812-28.805-28.454-9.305-1.028-18.617 1.94-25.544 8.145-6.932 6.208-10.908 15.104-10.908 24.405 0 8.712 3.383 16.913 9.525 23.09.215.217.577.663.577 1.219v.97c0 .864-.703 1.566-1.566 1.566h-38.994z"/><path d="m238.787 86.722h6c4.142 0 7.5-3.358 7.5-7.5s-3.358-7.5-7.5-7.5h-6c-4.142 0-7.5 3.358-7.5 7.5s3.358 7.5 7.5 7.5z"/><path d="m278.343 86.722h14.914c4.142 0 7.5-3.358 7.5-7.5s-3.358-7.5-7.5-7.5h-14.914c-4.142 0-7.5 3.358-7.5 7.5s3.358 7.5 7.5 7.5z"/><path d="m326.813 86.722h6c4.142 0 7.5-3.358 7.5-7.5s-3.358-7.5-7.5-7.5h-6c-4.142 0-7.5 3.358-7.5 7.5s3.358 7.5 7.5 7.5z"/><path d="m432.778 252.287c4.142 0 7.5-3.358 7.5-7.5v-6c0-4.142-3.358-7.5-7.5-7.5s-7.5 3.358-7.5 7.5v6c0 4.142 3.358 7.5 7.5 7.5z"/><path d="m425.278 293.257c0 4.142 3.358 7.5 7.5 7.5s7.5-3.358 7.5-7.5v-14.914c0-4.142-3.358-7.5-7.5-7.5s-7.5 3.358-7.5 7.5z"/><path d="m425.278 332.813c0 4.142 3.358 7.5 7.5 7.5s7.5-3.358 7.5-7.5v-6c0-4.142-3.358-7.5-7.5-7.5s-7.5 3.358-7.5 7.5z"/><path d="m273.213 425.278h-6c-4.142 0-7.5 3.358-7.5 7.5s3.358 7.5 7.5 7.5h6c4.142 0 7.5-3.358 7.5-7.5s-3.358-7.5-7.5-7.5z"/><path d="m233.657 425.278h-14.914c-4.142 0-7.5 3.358-7.5 7.5s3.358 7.5 7.5 7.5h14.914c4.142 0 7.5-3.358 7.5-7.5s-3.358-7.5-7.5-7.5z"/><path d="m185.187 425.278h-6c-4.142 0-7.5 3.358-7.5 7.5s3.358 7.5 7.5 7.5h6c4.142 0 7.5-3.358 7.5-7.5s-3.358-7.5-7.5-7.5z"/><path d="m79.222 259.713c-4.142 0-7.5 3.358-7.5 7.5v6c0 4.142 3.358 7.5 7.5 7.5s7.5-3.358 7.5-7.5v-6c0-4.142-3.358-7.5-7.5-7.5z"/><path d="m86.722 218.743c0-4.142-3.358-7.5-7.5-7.5s-7.5 3.358-7.5 7.5v14.914c0 4.142 3.358 7.5 7.5 7.5s7.5-3.358 7.5-7.5z"/><path d="m86.722 179.187c0-4.142-3.358-7.5-7.5-7.5s-7.5 3.358-7.5 7.5v6c0 4.142 3.358 7.5 7.5 7.5s7.5-3.358 7.5-7.5z"/><path d="m312.454 326.867 15.814 9.13c4.207 2.429 9.106 3.073 13.8 1.816 4.692-1.257 8.614-4.267 11.042-8.473l14.96-25.911c2.429-4.207 3.074-9.108 1.817-13.8s-4.267-8.614-8.473-11.042l-15.805-9.125c-1.057-.61-1.642-1.847-1.49-3.152.394-3.403.594-6.872.594-10.31s-.2-6.907-.594-10.312c-.151-1.303.434-2.54 1.49-3.15l15.805-9.125c4.207-2.429 7.216-6.35 8.473-11.042s.612-9.593-1.817-13.8l-14.96-25.912c-2.429-4.207-6.35-7.216-11.042-8.473-4.691-1.257-9.593-.612-13.8 1.816l-15.814 9.13c-1.064.614-2.437.501-3.496-.289-5.5-4.098-11.473-7.553-17.754-10.271-1.25-.541-2.057-1.711-2.057-2.981v-18.177c0-10.028-8.158-18.186-18.186-18.186h-29.92c-10.028 0-18.186 8.158-18.186 18.186v18.177c0 1.27-.808 2.44-2.057 2.981-6.281 2.717-12.255 6.173-17.755 10.271-1.059.789-2.431.902-3.496.288l-15.814-9.13c-4.207-2.429-9.107-3.075-13.8-1.816-4.692 1.257-8.614 4.267-11.042 8.473l-14.96 25.911c-2.429 4.207-3.074 9.108-1.817 13.8s4.267 8.614 8.473 11.042l15.805 9.125c1.057.61 1.642 1.847 1.49 3.152-.394 3.403-.594 6.872-.594 10.31s.2 6.907.594 10.312c.151 1.303-.434 2.54-1.49 3.15l-15.805 9.125c-4.207 2.429-7.216 6.35-8.473 11.042s-.612 9.593 1.817 13.8l14.96 25.912c2.429 4.207 6.35 7.216 11.042 8.473s9.593.612 13.8-1.816l15.814-9.13c1.063-.614 2.437-.501 3.496.289 5.5 4.098 11.473 7.553 17.754 10.271 1.25.541 2.057 1.711 2.057 2.981v18.177c0 10.028 8.158 18.186 18.186 18.186h29.92c10.028 0 18.186-8.158 18.186-18.186v-18.177c0-1.27.808-2.44 2.057-2.981 6.281-2.717 12.255-6.173 17.755-10.271 1.06-.788 2.432-.902 3.496-.288zm-27.207-3.207c-6.744 2.917-11.101 9.491-11.101 16.748v18.177c0 1.757-1.429 3.186-3.186 3.186h-29.92c-1.757 0-3.186-1.429-3.186-3.186v-18.177c0-7.256-4.357-13.83-11.101-16.748-5.217-2.257-10.179-5.128-14.748-8.532-3.253-2.425-7.111-3.655-10.969-3.655-3.1 0-6.202.795-8.989 2.404l-15.814 9.13c-.995.574-1.941.446-2.417.318-.476-.127-1.36-.49-1.935-1.484l-14.96-25.912c-.574-.994-.446-1.941-.318-2.417s.49-1.36 1.484-1.935l15.806-9.125c6.242-3.604 9.731-10.619 8.89-17.868-.328-2.832-.494-5.72-.494-8.584s.167-5.752.494-8.583c.841-7.25-2.648-14.265-8.89-17.869l-15.805-9.125c-.994-.574-1.357-1.458-1.484-1.935s-.256-1.423.318-2.417l14.96-25.912c.574-.995 1.458-1.357 1.935-1.484.477-.128 1.423-.256 2.417.318l15.814 9.13c6.257 3.613 14.091 3.122 19.958-1.25 4.569-3.404 9.532-6.275 14.749-8.532 6.744-2.917 11.101-9.491 11.101-16.748v-18.177c0-1.757 1.429-3.186 3.186-3.186h29.92c1.757 0 3.186 1.429 3.186 3.186v18.177c0 7.256 4.357 13.83 11.101 16.748 5.217 2.257 10.179 5.128 14.748 8.532 5.868 4.373 13.702 4.864 19.958 1.251l15.814-9.13c.995-.574 1.941-.446 2.417-.318.476.127 1.36.49 1.935 1.484l14.96 25.912c.574.994.446 1.941.318 2.417s-.49 1.36-1.484 1.935l-15.806 9.125c-6.242 3.604-9.731 10.619-8.89 17.868.328 2.832.494 5.72.494 8.584s-.167 5.752-.494 8.583c-.841 7.25 2.648 14.265 8.89 17.869l15.805 9.125c.994.574 1.357 1.458 1.484 1.935s.256 1.423-.318 2.417l-14.96 25.912c-.574.995-1.458 1.357-1.935 1.484-.477.128-1.423.256-2.417-.318l-15.814-9.13c-6.256-3.613-14.091-3.122-19.958 1.25-4.57 3.404-9.532 6.274-14.749 8.532z"/><path d="m256 228.98c-14.899 0-27.02 12.121-27.02 27.02s12.121 27.02 27.02 27.02 27.02-12.121 27.02-27.02-12.121-27.02-27.02-27.02zm0 39.04c-6.628 0-12.02-5.392-12.02-12.02s5.392-12.02 12.02-12.02 12.02 5.392 12.02 12.02-5.392 12.02-12.02 12.02z"/><path d="m256 197.992c-31.986 0-58.008 26.022-58.008 58.008s26.022 58.008 58.008 58.008 58.008-26.022 58.008-58.008-26.022-58.008-58.008-58.008zm0 101.016c-23.715 0-43.008-19.293-43.008-43.008s19.293-43.008 43.008-43.008 43.008 19.293 43.008 43.008-19.293 43.008-43.008 43.008z"/></g></g></g></g></svg>