<?xml version="1.0"?>
<svg xmlns="http://www.w3.org/2000/svg" width="512" height="512" viewBox="0 0 128 128"><g><path d="M121.25,77.681h-.256V72.01c-.08-4.436.208-15.168-.216-19.8A56.989,56.989,0,0,0,7.006,56.994v5.26H6.75a6.75,6.75,0,0,0,0,13.5H60.132V107.69H59a1.75,1.75,0,0,0-1.75,1.75v8.625a1.749,1.749,0,0,0,1.75,1.75h1.132v6.435a1.749,1.749,0,0,0,1.75,1.75H72.5a1.749,1.749,0,0,0,1.75-1.75v-6.435h1.132a1.749,1.749,0,0,0,1.75-1.75V109.44a1.75,1.75,0,0,0-1.75-1.75H74.25v-18.4l1.312,1.355a1.754,1.754,0,0,0,1.257.533H121.25a6.75,6.75,0,0,0,0-13.5Zm-3.81-22.814c.095.77.041,14.393.054,15.393H91.276a3.168,3.168,0,0,1,0-6.335H93.1a6.657,6.657,0,0,0,6.649-6.649,3.151,3.151,0,0,1,3.148-3.148h14.506C117.422,54.381,117.429,54.621,117.44,54.867ZM71.625,7.772V6.057a2.5,2.5,0,0,1,.846-1.88A54.092,54.092,0,0,1,101.617,19H59.182a2.557,2.557,0,0,1-.025-5.113l6.469-.062A6.075,6.075,0,0,0,71.625,7.772ZM10.9,50.6A53.5,53.5,0,0,1,16.211,33a54.366,54.366,0,0,1,8.136-11.871h5.278a3.5,3.5,0,0,1,3.5,3.5,7.009,7.009,0,0,0,7,7h11.75a3.5,3.5,0,0,1,3.5,3.5v1.25a3.5,3.5,0,0,1-3.5,3.5h-3.5a7.009,7.009,0,0,0-7,7v.25a3.5,3.5,0,0,1-3.5,3.5H10.9Zm-.4,6.4c0-.962.028-1.917.079-2.866h27.29a7.009,7.009,0,0,0,7-7v-.25a3.5,3.5,0,0,1,3.5-3.5h3.5a7.009,7.009,0,0,0,7-7v-1.25a7.009,7.009,0,0,0-7-7H40.125a3.5,3.5,0,0,1-3.5-3.5,7.009,7.009,0,0,0-7-7h-1.8A53.287,53.287,0,0,1,64,3.5c1.554,0,3.088.081,4.609.212a5.968,5.968,0,0,0-.484,2.345V7.772a2.564,2.564,0,0,1-2.532,2.556l-6.469.062A6.057,6.057,0,0,0,59.182,22.5h45.663A53.262,53.262,0,0,1,117.1,50.628H102.9a6.655,6.655,0,0,0-6.648,6.648A3.152,3.152,0,0,1,93.1,60.425H91.276a6.668,6.668,0,0,0,0,13.335h26.218v3.921H81.8L67.375,62.786a1.749,1.749,0,0,0-1.257-.532H10.506Zm63.126,54.2v5.125H60.75V111.19H73.632ZM70.75,124.5H63.632v-4.685H70.75Zm0-16.81H63.632V78.327L66.8,81.6l3.95,4.079Zm50.5-20.009H77.56l-3.8-3.927v0L63.139,72.786a1.923,1.923,0,0,0-.882-.489,1.793,1.793,0,0,0-.375-.043H6.75a3.25,3.25,0,0,1,0-6.5H65.377L79.8,80.648a1.75,1.75,0,0,0,1.257.533H121.25a3.25,3.25,0,0,1,0,6.5Z"/><path d="M74.375,56.128a6.007,6.007,0,0,0,6-6V48.753a2.5,2.5,0,0,1,2.5-2.5h6.25a6.007,6.007,0,0,0,6-6V36a6.006,6.006,0,0,0-6-6H75.875a6.006,6.006,0,0,0-6,6v4.5a2.5,2.5,0,0,1-2.5,2.5,6.006,6.006,0,0,0-6,6v1.125a6.007,6.007,0,0,0,6,6Zm-9.5-6V49a2.5,2.5,0,0,1,2.5-2.5,6.007,6.007,0,0,0,6-6V36a2.5,2.5,0,0,1,2.5-2.5h13.25a2.5,2.5,0,0,1,2.5,2.5v4.25a2.5,2.5,0,0,1-2.5,2.5h-6.25a6.006,6.006,0,0,0-6,6v1.375a2.5,2.5,0,0,1-2.5,2.5h-7A2.5,2.5,0,0,1,64.875,50.128Z"/></g></svg>
