<svg version="1.2" xmlns="http://www.w3.org/2000/svg" viewBox="0 0 2670 2000" width="2670" height="2000"><style>.a{fill:#fff}.b{fill:#e3eaff}.c{fill:#201d40}.d{fill:#f37a50}.e{fill:#de623c}.f{fill:#2c2858}.g{fill:#e62552}.h{fill:#c4204a}.i{fill:#95a6db}.j{fill:#768fdb}.k{fill:#8a284c}.l{fill:#494c7f}.m{fill:#0e6a41}.n{fill:#ff4f78}.o{fill:#3f964f}.p{fill:#ffe91d}</style><path class="a" d="m2670 2000h-2670v-2000h2670z"/><path class="b" d="m405 1941.1c-181.6-197.7-429.8-401.9-332.5-710.3 64.1-202.8 221-259.3 351.4-384.4 64.4-61.7 23.9-151.6 22.7-240.8-2.7-228.3 252.2-405.5 486.5-401.8 253.8 4 363.6 259.1 576.5 272.8 83.6 1.3 158.5-47.8 232.4-86.7 219.2-115.5 566.9-41.9 584.5 237.4 4.6 150.8-167.1 393.4 4.9 472.8 137 63.2 275.5 86.5 300.2 312.6 32.3 295.9-138.6 458.3-361.3 534.5z"/><path class="a" d="m523.7 815.6h252.7c31.3 0 56.7 25.4 56.7 56.7v117.8c0 31.3-25.4 56.6-56.7 56.6h-1.9l20.3 67.9c0.9 3-2.5 5.4-5 3.5l-93.6-71.4h-172.5c-31.2 0-56.6-25.3-56.6-56.6v-117.8c0-31.3 25.4-56.7 56.6-56.7z"/><path class="b" d="m776.3 914.6h-242.6c-15.5 0-28-12.6-28-28.1 0-15.5 12.5-28 28-28h242.6c15.5 0 28 12.5 28 28 0 15.5-12.5 28.1-28 28.1z"/><path class="b" d="m776.3 1000.2h-242.6c-15.5 0-28-12.6-28-28.1 0-15.4 12.5-28 28-28h242.6c15.5 0 28 12.6 28 28 0 15.5-12.5 28.1-28 28.1z"/><path class="a" d="m2131.9 559.5v128.4c0 34.1-27.7 61.8-61.8 61.8h-188l-102.1 77.9c-2.7 2-6.5-0.6-5.5-3.8l22.1-74.1h-2.1c-34.1 0-61.7-27.7-61.7-61.8v-128.4c0-34.2 27.6-61.8 61.7-61.8h275.6c34.1 0 61.8 27.6 61.8 61.8z"/><rect class="b" x="1765.4" y="550.2" width="327.3" height="56.1" rx="24.9"></rect><rect class="b" x="1774.4" y="635" width="186" height="56.1" rx="28"></rect><path class="a" d="m231.2 1449.5q15.6-11.9 37.6-11.9c31.5 0 48.3 17.2 48.3 41.4 0 13.9-6.8 28.1-20.5 42.2-17.4 18.4-29.9 27.4-37.8 27.4-7.7 0-13.2-6-13.2-13.2 0-6.5 6-13 16.4-22.5 0.7-0.7 1.4-1.4 1.9-1.7 11.8-10.9 15.5-16.9 15.5-24.3 0-9.3-6.2-14.4-15.3-14.4-4.1 0-9 0.9-14.8 2.8q-8.7 2.7-12.6 2.7c-6.5 0-13.9-5.5-13.9-14.8 0-4.9 2.8-9.5 8.4-13.7zm31.8 154.8c-14.2 0-23.7-10.7-23.7-23.7 0-11.1 9.5-21.8 23.7-21.8 12.3 0 21.8 10.7 21.8 21.8 0 12.8-9.1 23.7-21.8 23.7z"/><path class="a" d="m2127.5 928.6q10.3-7.8 24.7-7.8c20.8 0 31.8 11.3 31.8 27.2 0 9.2-4.4 18.5-13.4 27.8-11.5 12-19.7 18-24.9 18-5.1 0-8.7-4-8.7-8.7 0-4.3 3.9-8.6 10.8-14.8 0.5-0.5 0.9-0.9 1.2-1.1 7.8-7.2 10.3-11.1 10.3-16 0-6.1-4.2-9.5-10.1-9.5-2.8 0-6 0.6-9.8 1.9q-5.7 1.8-8.2 1.8c-4.3 0-9.2-3.7-9.2-9.8 0-3.2 1.9-6.2 5.5-9zm20.9 101.8c-9.3 0-15.5-7-15.5-15.5 0-7.4 6.2-14.4 15.5-14.4 8.1 0 14.4 7 14.4 14.4 0 8.4-6 15.5-14.4 15.5z"/><path class="a" d="m2584.1 1492.8h-289.8c-5.1 0-9.3-4.2-9.3-9.3v-249.5c0-5.1 4.2-9.3 9.3-9.3 5.1 0 9.3 4.2 9.3 9.3v240.2h280.5c5.1 0 9.3 4.2 9.3 9.3 0 5.1-4.2 9.3-9.3 9.3z"/><path class="a" d="m2316.2 1431.8c-2.3 0-4.6-0.9-6.4-2.6-3.7-3.6-3.8-9.5-0.2-13.1l93.6-96.9c3.1-3.2 8-3.8 11.8-1.4l44.2 28.8 46.8-54.3c3.3-3.9 9.2-4.3 13-1 3.9 3.4 4.4 9.2 1 13.1l-52 60.4c-3 3.5-8.2 4.3-12.1 1.7l-44.6-28.9-88.4 91.4c-1.8 1.8-4.2 2.8-6.7 2.8z"/><path class="a" d="m2520.2 1332.1l-13.2-26.8-28.4-9.1 63.3-31.4z"/><path fill-rule="evenodd" class="a" d="m637 588.1c-30.9 0-56.1-25.2-56.1-56.2 0-30.9 25.2-56.1 56.1-56.1 31 0 56.2 25.2 56.2 56.1 0 31-25.2 56.2-56.2 56.2zm0-96.8c-22.4 0-40.7 18.2-40.7 40.6 0 22.5 18.3 40.7 40.7 40.7 22.4 0 40.7-18.2 40.7-40.7 0-22.4-18.3-40.6-40.7-40.6z"/><path fill-rule="evenodd" class="b" d="m2349.8 1034.9c-22.7 0-41.1-18.4-41.1-41.1 0-22.7 18.4-41.1 41.1-41.1 22.7 0 41.1 18.4 41.1 41.1 0 22.7-18.4 41.1-41.1 41.1zm0-70.9c-16.4 0-29.8 13.4-29.8 29.8 0 16.4 13.4 29.8 29.8 29.8 16.4 0 29.8-13.4 29.8-29.8 0-16.4-13.4-29.8-29.8-29.8z"/><path fill-rule="evenodd" class="a" d="m191 1260.3c-20.4 0-37-16.5-37-36.9 0-20.3 16.6-36.9 37-36.9 20.3 0 36.9 16.6 36.9 36.9 0 20.4-16.6 36.9-36.9 36.9zm0-63.6c-14.8 0-26.8 12-26.8 26.7 0 14.8 12 26.8 26.8 26.8 14.7 0 26.7-12 26.7-26.8 0-14.7-12-26.7-26.7-26.7z"/><circle class="a" cx="2150.2" cy="424.3" r="20.1"/><circle class="b" cx="370" cy="796.2" r="39.5"/><circle class="b" cx="2260.6" cy="346.4" r="29.7"/><circle class="b" cx="2410.3" cy="1059.4" r="25.3"/><circle class="a" cx="2184.6" cy="500" r="31.6"/><circle class="a" cx="730.8" cy="442.6" r="32.1"/><path class="c" d="m2278.7 1958.4h-1897.3c-6.2 0-11.2-5-11.2-11.2 0-6.2 5-11.2 11.2-11.2h1897.3c6.2 0 11.2 5 11.2 11.2 0 6.2-5 11.2-11.2 11.2z"/><path class="d" d="m1009 977h0.1l29.1 0.1 6.6 68.7-34 18-36.3-17.8 5.9-68.9z"/><path class="d" d="m960.3 840c35.1-14.1 78.2 10.8 96.1 55.6 17.9 44.8 3.9 92.5-31.2 106.6-35.2 14.1-78.3-10.8-96.2-55.6-17.9-44.8-3.9-92.5 31.3-106.6z"/><path  d="m1042.7 901.1c3-2 7.1-1.3 9.2 1.7 2.1 3 1.4 7.1-1.6 9.2-3 2-7.1 1.3-9.2-1.7-2.1-3-1.3-7.1 1.6-9.2z"/><path  d="m993.5 920.5c3.3-2.2 7.7-1.4 10 1.8 2.2 3.2 1.4 7.7-1.8 9.9-3.3 2.3-7.7 1.5-10-1.7-2.2-3.3-1.4-7.7 1.8-10z"/><path class="e" d="m1031.1 920.8q8.9 7.1 20 15.5 0.2 10.8-12.4 15.4c4.5-4.1 8.5-9.6 3.8-15.9q-4.7-6.3-11.4-15z"/><path class="c" d="m978.8 926.2q-0.4 0-0.8-0.1c-1.8-0.4-2.9-2.2-2.4-4 1.1-4.8 5.9-13.9 16-14 1.8 0 3.3 1.5 3.3 3.3 0 1.8-1.5 3.3-3.3 3.3-7.4 0-9.6 8.9-9.6 8.9-0.4 1.6-1.7 2.6-3.2 2.6z"/><path class="c" d="m1034.2 896.4q-0.7 0-1.4-0.4c-1.3-0.8-1.7-2.4-1-3.7 0.2-0.3 3-5.1 8.5-6.1 3.7-0.7 7.5 0.5 11.4 3.6 1.2 1 1.4 2.7 0.4 3.9-0.9 1.2-2.6 1.4-3.8 0.4-2.6-2-4.9-2.9-7-2.5-3 0.6-4.7 3.4-4.7 3.4-0.5 0.9-1.5 1.4-2.4 1.4z"/><path class="c" d="m904.5 913.1q-15.1-43.1 21.8-67.9-9.9-0.9-11.1-14.8c7.4 2.3 15.7 2.1 23-0.5 49.3-17.8 83.2-17.6 83.2 3.5 0 7.4 32.5 2.3 29.7 52.7 0.2-3.5-11.4-24.3-22.4-26.3-11-2.1-1 12.6-24 15.7-23.1 3.2-40.1-2.4-54.3 10.6-11 11.4-13.8 69.4-12.1 72.8-3.8-8-27.1-26.8-33.8-45.8z"/><path class="c" d="m1037.2 1017.7c-59.1 9.4-100.2-22.5-98.9-78.7q22 50.3 45.5 42.9c3.4-28.8 38.1-22.4 57.3-25 8-1 16.4-12.2 20.4-1.7q3.8-8.1 1.7-34.4c16.6 36.5 13 90.8-26 96.9z"/><path class="e" d="m1022.7 974.7q-5.7-1.4-11.9-4.7c-1.1-0.5-1.5-1.9-0.9-2.9 0.6-1.1 1.9-1.5 3-0.9 9.1 4.8 17.2 6.2 24.2 4.1 8.7-2.7 12.6-9.9 12.6-10 0.6-1.1 1.9-1.5 3-0.9 1.1 0.5 1.5 1.9 0.9 2.9-0.2 0.4-4.7 8.9-15.1 12.1q-7.4 2.3-15.8 0.3z"/><path class="d" d="m937.8 939.4c9.8 5.6 14.2 16.6 9.6 24.7-4.5 8.1-16.2 10.2-26.1 4.6-9.9-5.5-14.2-16.6-9.7-24.7 4.6-8.1 16.3-10.1 26.2-4.6z"/><path class="e" d="m933.6 963.8c-1.2-0.6-1.6-2.1-1-3.4 1.7-3.1 1.6-5.9-0.3-7.9-2-2-5.5-2.7-7.9-1.5-1.2 0.6-2.7 0.1-3.3-1.1-0.6-1.2-0.1-2.7 1.1-3.3 4.3-2.2 10.1-1.2 13.6 2.5 3.5 3.5 3.9 8.7 1.2 13.7q-0.3 0.5-0.7 0.9c-0.8 0.5-1.8 0.6-2.7 0.1z"/><path  d="m1042.7 1895.5q6.2-16.8 19.5-18.7c25.7 35.5 88.9 13.7 86.9 61.8q-96.2-0.6-136.2 0c0.2-11 2.1-37.2 4.3-47.5l5 0.9z"/><path  d="m898.8 1896.5q6.2-16.9 19.5-18.8c25.7 35.6 89 13.8 86.9 61.8q-96.2-0.6-136.1 0c0.1-11 2-37.2 4.2-47.5l5 1z"/><path class="c" d="m1106.7 1334.4q15.6 227.7 9.2 278.4c-6.3 50.6-28.8 115.5-26.2 282.9q-31.4 7.9-76.8 0-6.7-189.3 26.4-273.9-13.4-82.1-56.7-270.3z"/><path class="f" d="m1047.3 1340.7q-31.5 255.6-46.9 304.1c-15.4 48.5-45.5 89.5-73.5 254.4q-32.2 1.6-62.2 0 4.4-209.2 54.5-256.8 1.7-83.3-8.1-300.1z"/><path class="g" d="m902 1050.5q54.8-19.1 73-10.4 56.8 27.4 69.8 0 18.1 1.6 72.8 10.4c0 61.1 4.1 122.5 3 168.7q-0.8 40.3 6.9 149.9-60.4 15.8-117.5 16.2-57.1-0.3-115.2-15.6 3-111 5.6-152.2c-0.9-46.3 1.6-106 1.6-167z"/><path class="h" d="m1197.9 1208.5q-21.4 15.7-33 8-12-7.9-21.7 5.5c11.2-24.4 10.5-43.3 14.5-62.6q-23.4-20.6-55.6-39.7l15.5-69.2c7.7 2.6 74.8 36.9 97.4 90.9q17.2 41.1-17.1 67.1z"/><path class="i" d="m1202.5 1277.9h-151.2l60.8-206.5h151.7q0.6 0 1.3 0 0.6 0.1 1.2 0.3c2.2 0.7 3.8 2.6 4.1 4.8q0.1 0.2 0.1 0.4 0 0.3 0 0.5 0 0.4 0 0.8 0 0.6-0.2 1.1l-60.3 194.3c-0.7 2.4-2.8 4-5.2 4.3h-1.3q-0.6-0.1-1.1-0.3z"/><path class="j" d="m1117.5 1079.3l-60 194.3c-1 3.2-4.4 5-7.7 4-3.2-1-5-4.4-4-7.7l0.2-0.4 59.8-193.8c1-3.2 4.5-5 7.7-4 3.2 1 5 4.4 4 7.6z"/><path class="d" d="m1228.1 1194.9c0.6-0.3 1.2-0.6 1.8-0.8q-0.1-0.1-0.2-0.2c-3.8-5.7-3.5-12.5 0.6-15.2q1-0.7 2.2-1c-1.1-4.2-0.2-8.2 2.8-10.1 1.1-0.8 2.5-1.1 3.9-1.1-1.4-4.2-0.3-8.5 3-10.7 4-2.7 10-0.9 13.2 3.9 3.2 4.9 2.5 11-1.6 13.7-1 0.7-2.2 1.1-3.4 1.2 2.8 5.3 2.2 11.1-1.5 13.6q-1 0.6-2.2 0.9c1.1 4.2 0.2 8.2-2.8 10.2-1 0.7-2.3 1-3.6 1.1 1.4 3.6 0.5 7.5-2.4 9.4-3.4 2.3-8.4 0.8-11.1-3.3-2.7-4.1-2.2-9.3 1.3-11.6z"/><path class="d" d="m1041.6 1182.6l13.9-8q3.8-19.6 26-20-2.6 8.2-6.2 20 10.9 8.5 36.8-6c25.4-5.7 14.5 12.8 22.9 14.1 12.4 2-9 26.3-34.3 30q-32.7 4.9-36.6-1.8l-18.5 6.4z"/><path class="k" d="m913.7 1203.6q46.2-3.2 125-26.1 12.6 19.4 9.2 45.1c-71.8 62.9-179.8 83.3-213 68.1-30.2-13.8-8.8-198 67.1-240.2q26.1 44.1 11.7 153.1z"/><path  d="m1703.5 1892.3c2.2 9.9 4.1 35.2 4.2 45.9q-40-0.6-136.1 0c-2.1-46.5 61.1-25.4 86.9-59.8z"/><path  d="m1847.3 1893.2c2.3 9.9 4.2 35.2 4.3 45.9q-40-0.6-136.1 0c-2.1-46.5 61.1-25.4 86.9-59.8z"/><path class="c" d="m1738 1370.6q-43.2 181.9-56.7 261.3 33.1 81.8 26.4 264.8-45.4 7.6-76.7 0c2.5-161.9-20-224.6-26.3-273.5q-6.3-49 9.3-269.1z"/><path class="f" d="m1809.5 1361.7q-9.8 209.6-8.1 290.1 50.2 46 62.9 241.9-38.4 8-70.6 6.4c-27.9-159.5-58-199.1-73.4-246q-15.5-46.9-47-294z"/><path class="d" d="m1801.7 955.8c-17.1 42.7-58.1 66.4-91.7 53-33.5-13.4-46.8-58.9-29.8-101.6 17.1-42.7 58.2-66.5 91.7-53 33.5 13.4 46.9 58.9 29.8 101.6z"/><path  d="m1694.8 921.2c-1.9 2.8-5.9 3.5-8.7 1.6-2.9-2-3.6-5.9-1.6-8.8 2-2.8 5.9-3.5 8.8-1.6 2.8 2 3.5 5.9 1.5 8.8z"/><path  d="m1741.9 940.4c-2.2 3.1-6.4 3.8-9.5 1.7-3.1-2.1-3.8-6.4-1.7-9.5 2.2-3.1 6.4-3.8 9.5-1.7 3.1 2.2 3.8 6.4 1.7 9.5z"/><path class="e" d="m1693.5 945.5c-4.5 6-0.7 11.2 3.6 15.2q-11.9-4.5-11.8-14.7 10.6-8.1 19.1-14.8-6.4 8.2-10.9 14.3z"/><path  d="m1754.3 936.3c-1.5 0-2.7-1-3.1-2.4-0.1-0.3-2.2-8.5-9.2-8.5-1.7 0-3.1-1.5-3.1-3.2 0-1.7 1.4-3.1 3.2-3.1 9.5 0 14.1 8.7 15.2 13.3 0.4 1.7-0.6 3.4-2.3 3.8q-0.4 0.1-0.7 0.1z"/><path  d="m1701.4 907.9c-0.9 0-1.7-0.5-2.2-1.3-0.1-0.1-1.8-2.8-4.6-3.3-1.9-0.3-4.2 0.5-6.6 2.4-1.1 0.9-2.8 0.8-3.7-0.4-0.9-1.1-0.7-2.7 0.4-3.6 3.7-3 7.4-4.1 10.9-3.5 5.2 1 7.9 5.6 8.1 5.8 0.7 1.2 0.3 2.8-1 3.5q-0.6 0.4-1.3 0.4z"/><path  d="m1789.8 960.2q-12.4-39.7 3.2-60.8-10.6-2.1-14.7 1.5-5.8-11.8-1.3-20.4c-21.9-8.5-32.8 5.7-52.6 10.5-27.1 6.5-60.6-4.3-63.7-37.4-0.5-4.7 4.8-7.8 8.8-5.2 3.7 2.5 8.6 4.5 14.7 4.4q-5.6-6.5-5.9-15.3c-0.2-4.9 5.5-7.5 9.3-4.4 5.6 4.7 16.1 9.1 34.7 5.6 12.4-2.3 40.8-22.2 58.5-18.3 14.4 3.2 25.9 15.5 30.9 33.1q35.5 3.7 39 42.8 3.5 38.4-41 67.9z"/><path class="d" d="m1809.9 957.9c4.3 7.7 0.2 18.3-9.2 23.6-9.4 5.3-20.5 3.4-24.9-4.3-4.4-7.7-0.3-18.3 9.1-23.6 9.4-5.3 20.6-3.4 25 4.3z"/><path class="e" d="m1786.5 976.7q-0.5-0.3-0.8-0.8c-2.6-4.8-2.2-9.7 1.1-13.1 3.4-3.5 8.8-4.5 13-2.4 1.2 0.6 1.6 2 1 3.2-0.5 1.1-2 1.6-3.1 1-2.3-1.1-5.6-0.5-7.5 1.5-1.8 1.9-1.9 4.6-0.3 7.5 0.6 1.2 0.2 2.6-1 3.3-0.8 0.4-1.7 0.3-2.4-0.2z"/><path class="a" d="m1687.2 974.3c-0.9-1.5 0.4-3.4 2.1-3 4.4 0.9 11.7 2.3 18.7 2.9 7 0.7 14.4 0.6 18.9 0.5 1.7-0.1 2.7 2 1.5 3.3-3.6 4.1-10.8 10-21.6 9.1-10.7-1-16.8-8.2-19.6-12.8z"/><path class="c" d="m1635.2 1107.1q-128.6-5.4-167-36.2l37.1-43.9q138.4-1.1 136.8 3.3z"/><path class="i" d="m1692.4 1026.7l43.6-4.1 42.2 11.8-47.5 49z"/><path class="d" d="m1710.8 991.4l61.6 4.8-5.7 58.1c-37.8 19.6-41.4 9.5-59.2-5.1z"/><path class="i" d="m1833.5 1073.2l-42.7 223.3 2 78c-60 8.3-121.1 3.8-175.7-14.4l16.2-77.7 4.9-228.5 41.2-6.6 11.4-2.3 1.6-18.3 30.1 34.7 9.7 3.4 10.2-1.6 35.8-28.8-1.7 18.3 12.9 5.1z"/><path class="f" d="m1737.8 1089.3l-6.4 178.6-18.6 14.3-14.3-19.9 25.8-174.4z"/><path class="f" d="m1722.8 1067.3l9.4-2.5 9.6 4.2-4 20.7-13.6-1.2z"/><path class="f" d="m1691.8 1028.2l-6.5 210.7-27.9 135.6q-44.1-4.4-71.2-30.2l34.7-102.1 11.9-213.5z"/><path class="l" d="m1691.8 1028.2l-6.5 207.8-32.1-159.3z"/><path class="f" d="m1835.3 1069.1l-20.8 190.6 17 112.3q-31.2 20.5-107.2 11.2l57.2-341.6z"/><path class="l" d="m1808 1090.8l-59.9 151 33.4-200.2z"/><path class="d" d="m1413.2 815.7q5-5 19.2-2.3 1.3-8.6-4.1-26.2c-5.6-18.2 4.3-25.6 8.5-23.8 2.5 1.8-3.8 14 14.9 51 4.8 9.5 2.5 17.6 1.1 25.6-0.5 3.2-1.1 6.5-1.6 9.8-1.8 12.5-0.3 34.6 1.6 46.3q0 0-32.7 36.9-1.5-29 0.5-64.3c-13.5-5.8-14.5-17.3-17.5-27.9-3.6-12.5 7.9-22.9 10.1-25.1z"/><path class="c" d="m1410.7 890.6c19.1-6.3 29.1-9.2 43.9-9.2 35.1 104.4 60 143.8 49.6 173.8-8.7 25-36.1 23-49.6 4.3-17.7-24.8-33.4-118.6-43.9-168.9z"/><path class="c" d="m1835.3 1069.1l110.4 172.7 131.2 74.1-40.5 40.2-131.5-57.6-90.4-127.4z"/><path class="a" d="m1732.2 1064.8q-16.2 16.4-31.2 20.6l-17.6-46.7 9-12z"/><path class="a" d="m1778.2 1034.4l6.7 13.6-25.7 42.6q-17.7-9.9-27-25.8z"/><path class="i" d="m1852.4 1556.6h-964.2c-22.6 0-41-12.3-41-27.6 0-15.2 18.4-27.6 41-27.6h964.2c22.7 0 41 12.4 41 27.6 0 15.3-18.3 27.6-41 27.6z"/><path class="i" d="m1249.6 1945.7c-10.3 0-16.5-11.5-10.9-20.1l254.6-390.1 21.8 14.2-254.6 390.1c-2.4 3.7-6.5 5.9-10.9 5.9z"/><path class="i" d="m1480.2 1939.8l-254.6-390.1 21.8-14.2 254.5 390.1c5.7 8.6-0.5 20.1-10.9 20.1-4.3 0-8.4-2.2-10.8-5.9z"/><path class="j" d="m1890.8 1939.5c-6.9 0-12.5-5.6-12.5-12.4v-220.9h25v220.9c0 6.8-5.6 12.4-12.5 12.4z"/><path class="j" d="m1978.3 1939.5c-6.9 0-12.5-5.6-12.5-12.4v-220.9h24.9v220.9c0 6.8-5.6 12.4-12.4 12.4z"/><path class="j" d="m2093 1939.5c-6.9 0-12.5-5.6-12.5-12.4v-220.9h25v220.9c0 6.8-5.6 12.4-12.5 12.4z"/><path class="j" d="m2180.5 1939.5c-6.9 0-12.5-5.6-12.5-12.4v-220.9h24.9v220.9c0 6.8-5.6 12.4-12.4 12.4z"/><path class="i" d="m2072.3 1348.7c16.5 0 29.8 13.4 29.8 29.8v268.2 29.8c0 16.4-13.3 29.7-29.8 29.7h-29.7-168.4c-16.4 0-29.7-13.3-29.7-29.7 0-16.5 13.3-29.8 29.7-29.8h162.9c3 0 5.5-2.4 5.5-5.4v-262.8c0-16.4 13.3-29.8 29.7-29.8z"/><path class="i" d="m2201.1 1651.5h-128.8v-302.8h128.8z"/><path class="j" d="m2201.1 1348.7c16.5 0 29.8 13.4 29.8 29.8v268.2 29.8c0 16.4-13.3 29.7-29.8 29.7h-29.7-168.4c-16.4 0-29.7-13.3-29.7-29.7 0-16.5 13.3-29.8 29.7-29.8h163c3 0 5.4-2.4 5.4-5.4v-262.8c0-16.4 13.3-29.8 29.7-29.8z"/><path class="j" d="m825.2 1927.1v-220.9h24.9v220.9c0 6.8-5.6 12.4-12.4 12.4-6.9 0-12.5-5.6-12.5-12.4z"/><path class="j" d="m737.7 1927.1v-220.9h25v220.9c0 6.8-5.6 12.4-12.5 12.4-6.9 0-12.5-5.6-12.5-12.4z"/><path class="j" d="m623 1927.1v-220.9h24.9v220.9c0 6.8-5.6 12.4-12.5 12.4-6.8 0-12.4-5.6-12.4-12.4z"/><path class="j" d="m535.5 1927.1v-220.9h24.9v220.9c0 6.8-5.5 12.4-12.4 12.4-6.9 0-12.5-5.6-12.5-12.4z"/><path class="i" d="m685.9 1378.5v262.8c0 3 2.4 5.4 5.4 5.4h162.9c16.5 0 29.8 13.3 29.8 29.8 0 16.4-13.3 29.7-29.8 29.7h-168.3-29.8c-16.4 0-29.7-13.3-29.7-29.7v-29.8-268.2c0-16.4 13.3-29.8 29.7-29.8 16.5 0 29.8 13.4 29.8 29.8z"/><path class="i" d="m527.3 1348.7h128.8v302.8h-128.8z"/><path class="j" d="m557.1 1378.5v262.8c0 3 2.4 5.4 5.4 5.4h162.9c16.4 0 29.8 13.3 29.8 29.8 0 16.4-13.4 29.7-29.8 29.7h-168.3-29.8c-16.4 0-29.8-13.3-29.8-29.7v-29.8-268.2c0-16.4 13.4-29.8 29.8-29.8 16.4 0 29.8 13.4 29.8 29.8z"/><path class="f" d="m1976.3 1278.1c-27.5-9.9-70-31.6-41.8-71.2 28.2-39.7 27.5-22.4 17.4-70.5-10.2-48.1 24-86 56.7-76.4 32.6 9.6 40.9 36 80.9 29.3 40-6.7 73.2 30.7 58.2 63.2-15.1 32.4-21.5 48-7.4 66 14 17.9 77.5 37.2 51 80.3-26.4 43-38.6 40.3-29.4 62.4 9.2 22-12 47.1-48.7 43.7-36.8-3.4-70.1-17.3-83.6-58.4q-13.5-41-53.3-68.4z"/><path class="d" d="m1879 1903.2l-21.7 6.5-16.4-16.7c0.8-1.1 0.1-12.4-2.5-24.3l40.6-6.7c1.6 12.3 0 28.8 0 41.2z"/><path class="g" d="m1874.6 1903l4.1-0.7c1.9 8.2 3.5 29.3 3.6 38.2q-33.3-0.5-113.5 0c-1.7-38.7 51-21.1 72.4-49.7q11.1 1.5 16.2 15z"/><path class="d" d="m1734.5 1907.3l-22.6 1.5-13-13.8c1-1 3.5-18.1 3.7-30.3l38.1 1.7c-1.2 12.4-3.4 28.7-6.2 40.9z"/><path class="g" d="m1731.5 1903l4.2-0.7c1.8 8.2 3.4 29.3 3.5 38.2q-33.3-0.5-113.4 0c-1.8-38.7 50.9-21.1 72.4-49.7q11 1.5 16.2 15z"/><path class="m" d="m2053.2 1619.1q-71.8 48.5-270.5 33.6c-10.9 101-9 139-33.2 227.1l-50.6-3c9.5-108.1-1-239.2 19-263.3 9.7-11.6 183.6-76.1 245.4-84.4 49.9-11.9 164 40 89.9 90z"/><path class="e" d="m1882.8 1400.7c14.6 2.5 20.2 14.2 23.7 35.8q-55.6 32.7-138.1 35l-26.4-13q66.3-23.8 140.8-57.8z"/><path class="e" d="m2034.8 1339.1c-24.3 35.3-117.5 111.3-132.9 113.7l-18.7-52.3q91-98.5 107.5-115.9c28.6-30.2 83.9-3.2 44.1 54.5z"/><path class="n" d="m1932.3 1333.4c19.5-21 44.9-68.5 78-65.1 33.1 3.4 35.4 38.5 25.5 57.4q-10 18.9-44.4 65.4z"/><path class="d" d="m1938.3 1422.3c14 4.9 22 49 18.1 52.4q-60.1 23.8-185.1-2l-6.6-22.6q94.6-5.8 173.6-27.8z"/><path class="g" d="m2018.3 1548.1q-58.4-11.1-55-19l14.2-97.1q-35.4-19.3-32.3-55c2.2-27.6 28-67.6 69.9-111.7l51.8-8.4c71.1 39.5 29.6 97.5 43.7 179.9 5.7 33.4 11.6 58.5 25.4 129.4q-59.2-7.1-117.7-18.1z"/><path class="d" d="m2093.4 1349.1c-24.3 35.8-128.3 126.7-143.9 127.5l-11.2-54.3q94.4-110.6 111-128.2c28.6-30.6 83.9-3.3 44.1 55z"/><path class="n" d="m1994 1349.4c18.2-26.4 54.8-75.2 87.8-71.8 33.1 3.4 35.5 38.5 25.5 57.4q-9.9 18.8-44.4 65.4z"/><path class="d" d="m1771.3 1472.7q-19 9.9-30.4-0.9c-8-7.6-17-13.1-27.4-10.2-6.7 1.8-22 21.6-26.2 13.6 16.7-43.7 58.3-29.8 77.4-25.1z"/><path class="n" d="m1749.8 1501h-179.5v-24.1h203.6c0 13.3-10.8 24.1-24.1 24.1z"/><path class="n" d="m1488.1 1317l103.5 172.7-21.3 11.3-92.4-151.5c-6.2-11.8-1.6-26.3 10.2-32.5z"/><path class="d" d="m2090.6 1189.4c-8.7 36.5-39 60.5-67.7 53.6-28.6-6.9-44.7-42-36-78.4 8.7-36.5 39-60.5 67.7-53.6 28.6 6.8 44.7 41.9 36 78.4z"/><path class="d" d="m2066.9 1256.9q-3.6 11.8-17.7 20.5c-14.1 8.8-30.7 2.6-26.4-11.4q2.1-6.9 6.3-27.9l47.6-29.5z"/><path class="f" d="m2057.5 1103.4c47.3 20.1 47.5 68.7 46.4 95.1-26.8-11.5-59.2-36-66.8-61.7-10.7 12.7-40 15-53.5 13.9q36.7-63.2 73.9-47.3z"/><path  d="m2000.3 1174.2c-1.2 2.5-4.3 3.5-6.8 2.3-2.6-1.3-3.6-4.4-2.3-6.9 1.2-2.5 4.3-3.6 6.8-2.3 2.5 1.2 3.6 4.3 2.3 6.9z"/><path  d="m2040.5 1184.1c-1.3 2.7-4.7 3.8-7.4 2.5-2.7-1.4-3.9-4.7-2.5-7.5 1.4-2.7 4.7-3.8 7.4-2.5 2.8 1.4 3.9 4.7 2.5 7.5z"/><path class="f" d="m2046.7 1179.5c-0.4-0.2-0.7-0.5-0.9-0.9-2.8-6-10.3-7.2-10.4-7.2-1-0.2-1.8-1.1-1.6-2.2 0.1-1 1.1-1.8 2.2-1.6 0.4 0 9.6 1.4 13.3 9.3 0.4 1 0 2.2-1 2.6-0.5 0.3-1.1 0.2-1.6 0z"/><path class="f" d="m1989.2 1166.7q-0.3-0.1-0.6-0.3c-0.7-0.8-0.7-2 0.1-2.8 5.8-5.8 13.1-3.4 13.4-3.3 1 0.4 1.5 1.5 1.2 2.5-0.4 1-1.5 1.5-2.5 1.2-0.2-0.1-5.3-1.7-9.4 2.4-0.6 0.6-1.5 0.7-2.2 0.3z"/><path class="e" d="m2005.1 1186.3c-1.1 2.6-2.7 5.9-3.5 7.5-0.3 0.6-0.3 1.5 0 2.1 0.7 1.4 2.4 4 6.3 7.4 0.5 0.4 0 1.1-0.5 0.9-3.9-1.6-10.2-4.8-12.4-8.6-0.5-1-0.2-2.2 0.7-2.8 2.6-1.6 5.1-4.6 7.9-7.5 0.7-0.7 1.9 0 1.5 1z"/><path class="d" d="m2097.4 1190.1c4.5 5.7 2.4 14.7-4.5 20.2-7 5.4-16.2 5.1-20.7-0.6-4.4-5.6-2.3-14.7 4.6-20.1 7-5.4 16.2-5.1 20.6 0.5z"/><path class="e" d="m2080.8 1208.1q-0.4-0.2-0.7-0.6c-2.7-3.5-2.9-7.5-0.7-10.7 2.3-3.2 6.6-4.6 10.2-3.4 1 0.3 1.6 1.4 1.2 2.4-0.3 1-1.4 1.5-2.4 1.2-2-0.6-4.5 0.3-5.8 2.1-1.3 1.7-1.1 3.9 0.6 6.1 0.6 0.9 0.5 2.1-0.4 2.7-0.6 0.5-1.4 0.5-2 0.2z"/><path class="o" d="m2113.2 1653.2q-83.3 0-250.3 11.1c29.2 30.9 21.6 117.9 22.2 212.5h-59.6c-14.2-132.8-58.8-235.9-38.8-260 9.7-11.7 183.9-68.1 245.6-76.4 146.8-30.6 123.3 112.8 80.9 112.8z"/><path class="a" d="m2001 1216c-0.8-1.1 0.1-2.7 1.5-2.5 3.4 0.4 9.2 1 14.7 1 5.5 0 11.3-0.6 14.8-1 1.4-0.2 2.3 1.4 1.5 2.5-2.6 3.4-7.8 8.6-16.3 8.6-8.4 0-13.7-5.2-16.2-8.6z"/><path class="d" d="m980.2 1425.1l-4 22.8q-103.6 50.8-164.9 43.3c-4.5-2.2-7.7-45 4.1-52.8 78.3 1.2 164.8-13.3 164.8-13.3z"/><path class="d" d="m724.8 1313.3q15.2 17.4 101.3 126.6l-12.7 51.4c-14.9-1.4-110.8-92-132.7-127-35.9-57.2 17.9-81.2 44.1-51z"/><path class="f" d="m766 1219.9c5.9 54.9-53.4 39.3-56.3 47.4-9.2 25.9-75.2 36.2-105 7.8-9-8.6-29.8 0-52.1-1.5-12.7-0.8-27.7-9.2-30.2-21.6-8.9-43.2 25.4-45.9 32.2-59.2 11.4-22.4-9.7-49.4 18.2-80.1 27.9-30.7 58.6-19.8 58.6-19.8q36.3-16 65.3 0.3c28.7 16.2 39 47.9 36.4 83.8-2.4 32 29.9 15.1 32.9 42.9z"/><path class="d" d="m706.7 1337.9l-55.2 46.9-37.6-77 17.7-23.5 47.1 8.7z"/><path class="o" d="m744.3 1548.8q-58.3 32.1-156.6 4.4c0.1-5.2 16.1-60.1 12-106-10.5-42.5-42.4-99.8-42.5-139.1-0.1-5 61-25.1 74.4-23.8q15.7 42.4 40.4 40.4 12.9-1 6.7-31.7c10.9 3 19.9 5.2 28.7 8.5 18.6 6.8 33.7 47.7 42.8 72 12.5 30.3-11.2 90.5-10.4 105.1 1.1 20.3 5.7 65.7 4.5 70.2z"/><path class="o" d="m842.1 1544.5q17.6 4.7 25.3 34.5 7.6 29.7-19 72.9h-248.3q-29.9-22.1-24.6-56.6 5.3-34.5 27-89.2z"/><path class="e" d="m798.6 1651.9h-109.8c39.2-77.7 131.3-113.4 163-109z"/><path class="e" d="m817 1571.5c4.1-4.5 7.8-10 11.1-15.8 9.2-16.3 31.5-19 44.1-5.1 45.8 50.4 143.4 165.5 165.1 179.8 6.2 4 42 24.7 76.1 20.6q16.8 6.4 5.6 19.8-5.7 6.8-92.4 13.9l-6.7-25.4c-50.4-37.3-113.2-34.6-166.5-102.9q-29.3-37.6-36.4-84.9z"/><path class="g" d="m1019.9 1759.3c23.1 11.7 51.4 19.8 79.7 13.7 6.6-2.6 14.8-17.6 13.8-21.9q26-20 33.8-10.3c-2.4 13.7-26.2 39.2-38.4 47.1q-37.2-10.6-53.2 2.1l28.2 26.3-4.8 5.7-34.8-22.6q-43.6-10.9-24.3-40.1z"/><path class="d" d="m832 1582.3c74.6 60.5 55.9 125.6 66.8 228.8 2.6 24.2 5.1 55.4 20.8 80.8q6.6 10.7 24.9 37.9l-31.9 10c-0.6-3.7-45-60.6-33.9-81.5-4.4-23.6-29.6-84.1-72.2-175.8-17.3-37.3-4.5-73-2-90.6 0.9-6.5 5.6-11.8 12-13.5 5.5-1.5 11.1 0.3 15.5 3.9z"/><path class="g" d="m878.7 1858.3c4.7 25.5 16.7 52.9 38.8 71.7 6 3.7 22.9 1.1 25.8-2.3q31.6 8.5 28.6 20.6c-12.3 6.4-47 3-60.7-1.9q-14.1-36-34-41.1l-3.8 38.5-7.4-0.4-3.2-41.4q-17.8-41.3 15.9-43.7z"/><path class="d" d="m678.7 1293l-31.3 8.5q-8.5-1.1-15.8-17.2l-3.1-35.5 38.3 5.7z"/><path class="d" d="m633.9 1114.4c32.4-7.8 66.7 19.4 76.6 60.6 9.8 41.3-8.4 81-40.8 88.8-32.4 7.7-66.7-19.4-76.6-60.7-9.9-41.2 8.4-81 40.8-88.7z"/><path  d="m697.9 1178.1c2.8-1.4 6.3-0.3 7.7 2.6 1.5 2.9 0.3 6.3-2.6 7.8-2.8 1.4-6.3 0.2-7.7-2.6-1.5-2.9-0.3-6.4 2.6-7.8z"/><path  d="m652.6 1188.7c3.1-1.6 6.8-0.3 8.4 2.8 1.5 3.1 0.3 6.9-2.8 8.4-3.1 1.6-6.9 0.3-8.4-2.8-1.6-3.1-0.3-6.9 2.8-8.4z"/><path class="f" d="m640.9 1191.9c-1.1-0.5-1.5-1.8-1-2.9 4.1-8.9 14.6-10.5 15-10.6 1.2-0.1 2.3 0.7 2.5 1.9 0.2 1.2-0.7 2.3-1.8 2.5-0.1 0-8.6 1.3-11.8 8.1-0.2 0.4-0.5 0.8-1 1-0.5 0.3-1.2 0.3-1.9 0z"/><path class="f" d="m705.4 1177.1c-4.7-4.7-10.4-2.8-10.7-2.7-1.2 0.4-2.4-0.3-2.8-1.4-0.4-1.1 0.2-2.4 1.4-2.8 0.3-0.1 8.5-2.8 15.2 3.8 0.8 0.8 0.8 2.2 0 3.1q-0.3 0.2-0.6 0.4c-0.8 0.4-1.8 0.2-2.5-0.4z"/><path class="e" d="m691.5 1198.5c3.2 3.2 6 6.6 9.1 8.5 1 0.7 1.3 2 0.7 3.1-2.4 4.3-9.6 7.9-14 9.8-0.6 0.3-1.2-0.6-0.6-1 4.4-3.9 6.3-6.8 7.1-8.4 0.4-0.7 0.4-1.7 0-2.4-0.9-1.8-2.7-5.5-4-8.5-0.4-1.1 1-1.9 1.7-1.1z"/><path class="d" d="m608.7 1203.4c7.9 6.1 10.2 16.3 5.2 22.8-5 6.4-15.5 6.7-23.3 0.5-7.9-6.1-10.2-16.3-5.2-22.7 5-6.5 15.4-6.7 23.3-0.6z"/><path class="e" d="m601.9 1224.1c-0.9-0.8-1.1-2.1-0.4-3.1 1.9-2.5 2.1-4.9 0.7-6.9-1.5-2.1-4.4-3.1-6.6-2.4-1.1 0.4-2.4-0.2-2.7-1.3-0.4-1.2 0.2-2.4 1.3-2.8 4.1-1.3 8.9 0.3 11.6 4 2.5 3.5 2.2 8-0.8 12q-0.3 0.5-0.8 0.7c-0.7 0.3-1.6 0.3-2.3-0.2z"/><path class="a" d="m655.7 1231.4c-0.9-1.3 0.1-3 1.6-2.8 3.9 0.5 10.3 1.1 16.4 1.1 6.1 0 12.5-0.6 16.4-1.1 1.5-0.2 2.5 1.5 1.6 2.8-2.8 3.8-8.6 9.5-18 9.5-9.4 0-15.2-5.7-18-9.5z"/><path class="f" d="m619.7 1109.4c22.5-11.2 62.4 1 69.8 25.3-4.4 20.2-58.5 59.6-97.2 64.8-16.4-30.6 4.9-78.8 27.4-90.1z"/><path class="a" d="m954.1 1492c-5.1-1.7-7.9-7.3-6.2-12.4l59.7-182.9c1.6-5.1 7.2-7.9 12.3-6.3 5.2 1.7 8 7.3 6.3 12.4l-59.7 182.9c-1.7 5.1-7.2 7.9-12.4 6.3z"/><path class="d" d="m985.9 1426.4l12.1-37.2q10.6 21.4 0 41.7-10.5 20.4-20.6 21.3z"/><path class="d" d="m968.5 1416.4c-3.1-7.2-10.3-25.3-3.1-25.2q7.2 0.1 8.4 8.9z"/><path class="d" d="m370.4 1307.5q16.4-16.5 5.7-33.5c9-1.9 56.5 70.1 77 115.8 35.7-36 98.7-84.7 115.8-87.5q23-6.2 31.2 21.6 7.4 24.8-21.4 42.4-122.9 86.8-141.1 79.1c-28.3-12-53.9-115.4-67.2-137.9z"/><path class="d" d="m270.4 1276.8c-6.7-7.3 11.9-12.1 21.7-8.4 39.5 14.8 52.4-0.7 32.9-3-15.5-1.9-12.8-11.4-12-12.8 0.8-1.5 5.8-0.4 16.4 0.6 4.2 0.3 45.6 8.1 62.6 35.3l-1.2 12-19.8 9.6c-3.8-9-16.2-4-26.3-4.6-45.6-2.8-66.9-20.8-74.3-28.7z"/><path class="o" d="m1417.5 750.3c0 9-1.5 17.8-4.4 26.1-14.6 41.7-63.1 72.4-120.7 72.4-57.7 0-106.2-30.7-120.8-72.4-2.9-8.3-4.4-17.1-4.4-26.1z"/><path class="m" d="m1417.5 750.3c0 9-1.5 17.8-4.4 26.1h-241.5c-2.9-8.3-4.4-17.1-4.4-26.1z"/><path class="p" d="m1499.7 488.4c-44.7 57.7-69.7 128.3-69.7 201.3v1.3h-275.3v-1.3c0-72.9-24.8-143.5-69.5-201.1-35.4-45.5-56-103-54.9-165.4 2.5-142.5 119.8-257.5 262.4-257.3 144.6 0.2 261.8 117.5 261.8 262.2 0 60.4-20.5 116-54.8 160.3z"/><path fill-rule="evenodd" class="a" d="m1332 661.4q-1.1 0-2.2-0.4c-3.5-1.2-5.3-5-4.1-8.5 0.3-0.9 31.2-90 53.7-180.7 39.8-160.7 19.3-186.8 8.6-190.6-31.3-11.1-56.2 5.3-71.7 21-4.5 4.7-8.8 9.9-12.9 15.6 6.7 11.5 12.7 24.3 17.8 37.8 13.8 37.1 17.5 71.7 9.8 92.7-5.9 16.1-18.5 24.3-35.5 23-16.1-1.2-27.8-10.5-33.9-26.8-7.1-18.8-6.2-46.3 2.5-75.7 5.4-18.5 13.6-36.3 23.5-51.6-9.2-14.7-19.9-27.2-31.6-35.7-17.2-12.6-33.4-13.1-48.1-1.6-30.4 23.7-31.5 95.1-3.4 206.3 21.7 85.8 53.6 165.2 53.9 166 1.4 3.4-0.3 7.3-3.7 8.7-3.4 1.4-7.3-0.3-8.7-3.7-0.3-0.8-32.5-80.9-54.4-167.5-30-118.6-27.3-192.7 8-220.4 19.5-15.2 42.3-14.7 64.3 1.4 11.1 8 22 20.1 31.9 34.8 3.5-4.5 7.2-8.8 11-12.6 25.6-26.2 56.1-34.8 85.7-24.3 18.5 6.5 26 31.3 23.1 75.9-2.1 32.9-9.9 76.8-23.3 130.6-22.6 91.3-53.6 180.9-54 181.8-0.9 2.7-3.5 4.5-6.3 4.5zm-36.8-331.1c-7.5 12.9-13.9 27.3-18.3 42.3-7.7 26.2-8.8 51.3-2.8 67.2 4.3 11.4 11.6 17.4 22.4 18.2 11.1 0.8 18.1-3.7 22-14.4 8.8-24.1-1.9-73.4-23.3-113.3z"/><rect class="o" x="1128.6" y="658" width="327.6" height="100.9" rx="49.4"></rect><path class="p" d="m1737.7 338.8h-85.8c-12.1 0-22-9.9-22-22.1 0-12.2 9.9-22 22-22h85.8c12.2 0 22 9.8 22 22 0 12.2-9.8 22.1-22 22.1z"/><path class="p" d="m932.8 338.8h-85.7c-12.2 0-22.1-9.9-22.1-22.1 0-12.2 9.9-22 22.1-22h85.7c12.2 0 22 9.8 22 22 0 12.2-9.8 22.1-22 22.1z"/><path class="p" d="m987.2 157.5l-68.2-51.9c-9.7-7.4-11.6-21.2-4.2-31 7.4-9.7 21.3-11.5 31-4.2l68.2 51.9c9.7 7.4 11.6 21.3 4.2 31-7.4 9.7-21.3 11.6-31 4.2z"/><path class="p" d="m1562.2 153.3c-7.4-9.7-5.5-23.6 4.2-31l68.2-51.9c9.7-7.3 23.5-5.5 30.9 4.2 7.4 9.8 5.5 23.6-4.2 31l-68.2 51.9c-9.7 7.4-23.6 5.5-30.9-4.2z"/><path class="p" d="m1018.2 507.6c7.4 9.7 5.5 23.5-4.2 30.9l-68.2 51.9c-9.7 7.4-23.6 5.5-31-4.2-7.4-9.7-5.5-23.5 4.2-30.9l68.2-51.9c9.7-7.4 23.6-5.5 31 4.2z"/><path class="p" d="m1593.1 503.4l68.2 51.9c9.7 7.4 11.6 21.2 4.2 30.9-7.4 9.7-21.2 11.6-30.9 4.2l-68.2-51.9c-9.7-7.4-11.6-21.2-4.2-30.9 7.3-9.7 21.2-11.6 30.9-4.2z"/><path class="o" d="m1349.2 1408.5q-19.7-37.1-27.6-76.6c-6.8-33.7-6.5-73.9-5.7-95.4 0.2-4.9 6.6-6.6 9.2-2.4 12.4 20.3 34.8 61 39.9 97.8 3.6 25.4 5.9 51 6.9 76.7z"/><path class="o" d="m1369.8 1408.5q13.2-45.4 27.6-75.7c10.5-22.1 34.4-48.5 46.7-61.3 2.3-2.4 6.4-0.3 5.8 3-3.2 16.8-10.5 49.9-22.4 72.6q-16.5 31.4-44.1 61.4z"/><path class="m" d="m1302.2 1368.2c-1.8-3.7 1.7-7.8 5.6-6.4 9.9 3.3 19.1 8.6 27 15.6q14.7 13.4 17.5 28.6l-5.1 1.7q-27.4-5-45-39.5z"/><path class="m" d="m1399.6 1340.6q-8.4 27.4-29.8 68h-5.8q-8.2-29.3-1.1-72.4c5.6-34.5 22.8-62.6 33.1-76.9 2.7-3.8 8.8-2.1 9.1 2.6 1.3 18.3 2.3 52.8-5.5 78.7z"/><path class="m" d="m1383.4 1408.5q12.3-40.9 54.4-56.5c2.4-1 4.8 1.5 3.8 3.9-5.6 13.6-21.4 45.9-48.1 52.6z"/><path class="j" d="m1408.1 1501.4h-72.4l-12.5-99.8h97.4z"/><path class="g" d="m1315.9 1479.7v14.3h3.9c1.9 0 3.4 1.5 3.4 3.4v0.6c0 1.9-1.5 3.4-3.4 3.4h-166.3c-2.2 0-4-1.7-4-4v-20.6c0-2.2 1.8-4 4-4h166.3c1.9 0 3.4 1.6 3.4 3.4 0 1.9-1.5 3.5-3.4 3.5z"/><path class="a" d="m1316.4 1494h-145.5c-1.6 0-2.9-1.3-2.9-2.9v-8.5c0-1.6 1.3-2.9 2.9-2.9h145.5z"/><path class="o" d="m1130.9 1448.7c-1.9 0-3.4-1.7-3.4-3.8 0-2.1 1.5-3.7 3.4-3.7h166.3c2.2 0 4 1.9 4 4.4v22.8c0 2.4-1.8 4.4-4 4.4h-166.3c-1.9 0-3.4-1.7-3.4-3.8v-0.6c0-2.1 1.5-3.8 3.4-3.8h3.9v-15.9z"/><path class="a" d="m1134.3 1448.7h145.3c1.7 0 3.1 1.4 3.1 3.1v9.7c0 1.7-1.4 3.1-3.1 3.1h-145.3z"/><rect class="g" x="1141" y="1400.8" width="163.7" height="25.7" rx="6.1"></rect><rect class="j" x="1151.7" y="1426.5" width="163.7" height="14.7" rx="4.6"></rect></svg>